<?xml version="1.0" encoding="UTF-8"?><svg id="Layer_1" xmlns="http://www.w3.org/2000/svg" viewBox="0 0 605.68 519.22"><defs><style>.cls-1{fill:#fefdfd;}.cls-2{fill:#3c454d;}.cls-3{fill:#9458b2;}.cls-4{fill:#cb3d33;}.cls-5{fill:#379825;}</style></defs><path class="cls-2" d="M185.87.44c.16-.03.33-.06.49-.08,15.36-1.75,28.43,2.9,40.21,12.56,10.08-1.98,20.2-1.35,29.66,2.83,13.81,6.1,20.89,16.98,26.11,30.58,2.02,1.17,4.45,2.9,6.77,3.25,7.84,1.2,22.03,0,30.66.09,18.91.27,37.78,1.9,56.46,4.86,37.99,6.21,74.61,18.93,108.27,37.61,16.65,9.37,33.13,20.32,47.51,32.95,31.06,27.29,55.73,65.17,66.71,105.07,14.08,51.17,6.42,103.42-19.88,149.22-20.84,36.29-51.85,64.19-86.74,86.6-8.85,5.68-17.73,11.34-27.23,15.9-20.89,10.04-43.11,17.15-65.44,23.16-32.82,7.69-61.72,11.85-95.46,11.87-5.94,0-11.94.09-17.87-.3-4.91-.33-9.88-1.23-14.81-1.11-7.23.17-13.87,3.83-21.41,3.71-6.15-.1-11.84-2.76-17.81-2.93-8.36-.24-14.65,3.71-24.56,2.56-16.51-1.91-22.72-7.92-32.43-20.33-7.89-1.1-15.65-2.11-22.92-5.6-9.02-4.33-10.11-8.67-16.74-13.49-6.31-4.59-13.75-8.05-20.34-12.33-18.52-12.02-36.47-25.75-52.03-41.46C23.53,385.73-.33,334.69,0,278.04c.36-60.83,26.35-108.16,68.87-150.15.91-8.44,3.38-14.79,7.14-22.33-2.99-11.25-3.69-21.87.73-32.89,5.25-13.09,14.69-20.47,27.33-25.89,3.7-9.78,8.09-18.26,16.36-24.99,11.72-9.54,24.58-10.8,39.09-9.29,8.03-6.51,16.09-10.41,26.35-12.07Z"/><path class="cls-1" d="M305.54,65.02c42.09-2.14,92.28,7.08,131.56,22.21,58.67,22.6,111.7,63.1,137.66,121.69,19.46,43.06,20.58,92.18,3.1,136.09-16.58,42.77-48.39,75.98-85.59,101.72-13.99,9.68-27.72,18.01-43.29,24.88-44.58,19.19-92.54,29.28-141.07,29.68-5.93.09-17.22,1.28-22.51-.78l-.03-.94c3.51-2.18,6.92-1.75,10.86-2.26,9.44-1.21,18-5.88,24.88-12.29,6.05-6.61,8.79-12.08,10.63-20.79.62-2.93,1.23-5.97,2.82-8.55,3.64-5.88,10.52-9.28,14.39-16.82,2.6-5.07,4.58-10.33,5.6-15.95,1.69-9.35,1.02-19.46,1.04-28.93.01-7.43.43-15.19-.37-22.58-.46-4.21-1.44-8.1-2.73-12.13,5.24,1.47,10.54,2.2,15.93,2.91,3.75,6.06,7.48,11.16,13.66,14.9,8.31,5.03,21.13,8.06,30.72,5.7,3.78-.93,8.04-2.77,11.93-2.63,2.95.1,6.14,1.3,9.01,2.04,6.95,1.79,14.35,1.45,21.28-.34,11.79-3.06,19-9.32,25.02-19.7,9.38-.78,18.13-2.13,26.34-7.06,7.99-4.8,15.94-13.83,18.22-23.05.9-3.65,1.15-8.05,3.2-11.23,1.72-2.67,4.44-4.89,6.68-7.13,6.62-6.62,10.8-13.7,12.95-22.85,2.45-10.44,2.6-52.17.38-62.72-1.24-5.89-3.63-10.89-6.79-15.98,2.88-10.04,3.53-19.87.3-29.93-4.72-14.68-14.41-23.27-27.76-30.09-4.28-10.51-9.25-19.34-18.76-25.99-11.44-7.99-24.18-9.62-37.69-7.28-8-5.9-15.57-10.08-25.54-11.56-15.21-2.27-27.99,2.72-40.06,11.65-10.47-1.65-20.19-1.8-30.04,2.62-13.94,6.25-21.13,17.07-26.41,30.87-6.29,2.85-11.48,5.8-16.76,10.29-.36-20.43,3.29-39.1-7.66-57.47,4.65-16.33,1.97-25.3-5.09-40.21Z"/><path class="cls-1" d="M190,18.49c19.86-1.68,20.28,9.13,31.85,11.68,8.07,1.78,15.52-2.36,24.82.99,8.84,3.19,14.41,8.88,17.84,17.62,1.04,2.65,1.87,5.65,3.46,8.02,5.37,8.02,16.07,7.72,22.43,17.62,10.54,16.42.42,22.69,2.47,34.07.84,4.64,3.96,8.41,5.92,12.61,4.45,9.58,1.24,22.85-6.49,29.79-3.47,3.11-8.69,5.17-11.12,9.18-3.2,5.27-2.26,12.23-4.49,17.94-3.26,8.37-11.18,15.61-20.21,16.92-4.68.68-10.07.17-14.3,2.52-6.28,3.5-7.59,10.32-17.16,14.22-9.91,4.04-18.47,1.23-27.76-2.72-7.56-.87-13,3.38-20.15,4.54-8.56,1.39-16.99-1.18-22.98-7.51-2.48-2.62-4.76-5.72-7.73-7.8-7.59-5.33-17.03-.28-25.89-7.29-6.96-5.5-10.57-13.03-12.17-21.6-.62-3.33-.94-6.73-2.99-9.56-2.19-3.02-5.6-4.82-8.57-6.97-9.13-6.63-12.77-20.07-8.83-30.59,1.86-4.98,5.46-9.34,6.26-14.7.72-4.82-1.84-9.66-2.48-14.42-1.32-9.82,3.99-21.44,12.51-26.6,4.32-2.61,10.17-3.76,13.5-7.74,4.21-5.04,4.83-12.43,9.14-17.87,6.95-8.77,16.06-11.56,26.87-10.77,3.39.25,6.91.8,10.24-.17,10.02-2.92,10.08-9.68,26.02-11.42Z"/><path class="cls-1" d="M419.55,124.95c10.94-.76,16.68.72,25.57,7.32,2.39,1.78,4.76,3.38,7.74,4.01,8.45,1.82,14.58-3.15,24.93.84,8.05,3.11,14.16,9.18,17.31,17.21,1.11,2.84,1.93,6,3.6,8.56,5.04,7.7,15.61,7.15,21.76,17.04,11.27,18.11.51,21.74,2.58,33.92.84,4.95,4.09,8.96,6.06,13.48,4.14,9.5,1.37,22.23-6.24,29.24-3.54,3.26-8.97,5.41-11.25,9.79-3.03,5.8-1.79,13.27-4.38,19.51-1.5,3.62-3.89,6.76-6.83,9.32-11.17,9.74-18.91,3.35-28.1,8.49-6.25,3.5-7.3,10.7-16.74,14.54-9.96,4.05-18.57,1.08-27.84-2.73-6.31-2.15-12.29,2.74-18.27,4.22-3.68.91-7.34.91-11.03.05-12.44-2.91-14.24-12.96-23.42-16.76-7.28-3.01-14.85-.67-22.09-5.26-7.17-4.55-11.48-11.98-13.15-20.17-.65-3.2-1.04-6.71-2.28-9.73-3.45-8.4-13.8-9.06-17.79-20.05-7.21-19.87,6.1-23.75,6.31-35.99.07-4.37-2.08-8.67-3-12.88-2.17-9.9,3.56-21.46,12.07-26.65,4.23-2.58,9.99-3.98,13.37-7.67,3.98-4.36,4.34-11.37,7.71-16.3,5.46-7.99,15.16-13.48,24.92-12.85,5.29.35,10.67,2.04,15.9.4,8.43-2.65,9.86-8.78,22.62-10.91Z"/><path class="cls-5" d="M417.65,161.38c33.75-3.72,64.09,20.71,67.65,54.47,3.56,33.76-21.01,63.99-54.8,67.39-33.55,3.38-63.52-21-67.06-54.53-3.54-33.54,20.69-63.63,54.21-67.32Z"/><path class="cls-1" d="M225.62,261.93c12.46-1.07,16.7.2,27.01,7,2.28,1.51,4.77,3,7.48,3.54,7.79,1.54,14.45-2.15,23.63.84,8.96,2.91,15.43,9.8,18.48,18.54,1.11,3.19,2.01,7.03,4.21,9.65,1.58,1.89,3.93,3.04,6.08,4.13,8.72,4.43,14.97,9,18.12,18.74,3.99,12.34-2.84,19.11-1.11,26.64.97,4.24,3.58,8.01,5.51,11.87,4.94,9.91,2.77,23.77-5.3,31.46-3.61,3.43-8.9,5.41-11.44,9.86-2.95,5.16-1.61,11.78-3.56,17.36-1.3,3.74-3.61,6.82-6.51,9.48-11.87,10.88-19.86,4.12-29.66,9.8-5.19,3.01-6.24,9.41-15.36,13.46-9.31,4.14-17.94,2.41-27.01-1.19-6.85-2.61-12.83,1.59-19.38,3.14-8.31,1.96-17.66-.95-23.66-6.95-3.32-3.33-6-7.57-10.46-9.47-7.55-3.22-15.39-.85-22.93-5.62-6.73-4.27-11.92-11.05-12.81-19.1-.33-3.02-.34-6.44-1.49-9.27-3.41-8.43-14.06-9.55-18.15-20.46-7.88-21.01,5-23.94,5.55-36.34.14-3.23-1.27-6.64-2.01-9.76-2.59-11.01,2.2-23.42,11.92-29.46,4.31-2.68,10.86-4.03,14.17-7.99,3.49-4.18,3.41-10.65,6.35-15.3,6.26-9.9,16.36-15.62,28.23-14.48,4.08.39,8.84,1.57,12.8.25,8.11-2.69,10.3-7.92,21.31-10.39Z"/><path class="cls-3" d="M223.19,297.8c33.62-4.49,64.49,19.2,68.86,52.83,4.37,33.64-19.42,64.42-53.07,68.68-33.49,4.23-64.09-19.41-68.44-52.89-4.35-33.47,19.2-64.16,52.65-68.62Z"/><path class="cls-1" d="M68.98,149.7c1.33,2,.34,28.93,2.27,36.04,2.34,8.62,6.22,15.31,12.5,21.64,2.34,2.36,4.93,4.65,6.58,7.57,1.65,2.92,1.85,6.67,2.65,9.9,1.06,4.28,3.3,8.44,5.79,12.05,9.94,14.39,22.6,16.81,38.69,19.75,4.62,6.22,8.54,10.65,15.08,14.82-4.58,5.86-7.3,11.45-9.84,18.45-10.59,4.71-18.7,10.5-24.51,20.78-6.76,11.98-7.15,24.95-3.59,37.99-2.27,4.3-4.68,8.59-5.91,13.34-2.73,10.56-1.38,35.86-1.29,48.03.14,20.48,4.06,31.41,18.79,45.93-1.6-.96-3.12-2.05-4.67-3.09-11.51-8.15-22.76-16.41-33.43-25.66-40.54-35.14-68.31-81.12-72.15-135.35-4.07-57.57,16.22-99.71,53.03-142.21Z"/><path class="cls-1" d="M381.79,330.16c9.26,6.06,20.4,8.48,31.28,5.57,3.47-.93,7.18-2.89,10.79-2.93,3.37-.04,6.53,1.38,9.7,2.36,11.5,3.56,22.35,1.08,32.77-4.32-.07,8.84,1.56,19.99-2.41,28.04-.47.62-.41.57-1.04,1.25-6.25,6.77-17.1,8.35-25.76,6.28-4.7-1.12-9.38-3.08-14.29-2.97-4.7.1-9.82,3.52-17.13,3.68-6.59.14-13.81-1.37-18.62-6.18-7.47-7.48-5.42-21.15-5.3-30.77Z"/><path class="cls-1" d="M188.67,467.08c3.44,1.86,6.88,3.59,10.61,4.79,7.3,2.34,15.13,2.43,22.48.25,2.8-.86,5.93-2.22,8.88-2.27,3.56-.05,7.15,1.07,10.57,1.95,12.85,3.32,20.24,2.12,31.89-3.93.09,8.51,1.39,18.76-2.26,26.61-.36.47-.74.89-1.15,1.31-6.56,6.58-17.24,8.27-26.1,6.41-4.57-.96-9.31-2.78-14.01-2.71-5.9.08-11.19,3.35-17.91,3.32-6.53-.04-13.71-1.51-18.36-6.43-6.68-7.08-4.71-20.2-4.63-29.29Z"/><path class="cls-1" d="M150.7,224.02c1.82,1.04,3.66,2.05,5.55,2.97,12.7,6.15,24.34,3.38,36.94-1.07,3.76.6,7.46,2.05,11.15,3.02,11.85,3.11,21.08,1.2,31.8-4.4l.04,19.25-7.07.02c-11.92.52-20.76,4.77-30.24,11.76-13.41-1.58-20.42-.68-32.77,4.66-3.91-1.26-7.68-2.76-10.65-5.73-7.04-7.07-4.82-21.24-4.75-30.48Z"/><path class="cls-1" d="M280.26,200.71c.17.66.23.8.31,1.58.92,9.07.35,20.18-5.63,27.43-6.07,7.36-14.19,9.35-23.18,10.23-.53-8.92-.17-18.01-.16-26.95,11.62-1.71,19.87-4.27,28.66-12.29Z"/><path class="cls-1" d="M510.56,307.71c.41.38.55.73.63,1.3,1.22,8.66-.4,20.6-6.16,27.29-5.93,6.89-14.07,8.98-22.72,9.66l-.03-26.84c11.11-.83,19.93-3.88,28.28-11.4Z"/><path class="cls-1" d="M107.5,201.22c8.67,7.83,16.41,10.68,27.98,11.88l-.05,26.82c-7.63-.15-15.72-2.72-21.18-8.2-8.42-8.46-6.94-19.63-6.76-30.5Z"/><path class="cls-1" d="M145.47,444.67c8.82,6.4,16.87,10.02,27.84,10.69.02,8.5,0,17-.1,25.5l-.29.64c-.52.21-.7.31-1.33.35-6.18.39-15.01-3.71-19.23-7.92-7.96-7.93-7.01-18.98-6.89-29.26Z"/><path class="cls-1" d="M317.54,444.77c.04.24.1.49.12.73.98,9.07.13,19.68-6.06,26.83-5.84,6.74-13.83,9.01-22.35,9.63-.84-8.42-.12-17.56-.09-26.06,11.39-.84,19.47-4.05,28.38-11.14Z"/><path class="cls-1" d="M305.27,205.2c1.22,1.88,1.68,4.79,2.31,6.96-10.14,19.69-7.65,28.49-7.52,50.02-8.34-5.37-17.25-7.86-27.14-7.97-3.91.09-7.9.61-11.82.91,6.5-2,12.71-4.16,18.25-8.21,11.23-8.22,14.8-19.4,16.92-32.55,2.56-3.27,6.04-6.21,8.98-9.15Z"/><path class="cls-1" d="M345.29,312.68c7.1,3.52,13.22,5.79,21.18,6.23l-.03,26.95c-6.1-.1-11.45-2.3-16.91-4.79.3-10.59-.16-18.48-4.25-28.39Z"/><path class="cls-1" d="M532.96,270.79l.38.44c1.31,10.15-.76,19.76-6.67,28.14-1.55-2.5-.5-19.04-.46-23.19,2.28-1.76,4.53-3.56,6.75-5.39Z"/><path class="cls-1" d="M302.43,165.78l.47.57c.73,10.13-.52,17.75-6.29,26.33-1.45-1.58-.75-18.66-.74-21.96,2.22-1.6,4.38-3.29,6.56-4.94Z"/><path class="cls-1" d="M123.1,409.55c1.37.86,2.71,1.75,3.81,2.95,4.68,5.07,3.57,17.38,3.41,23.84-.24-.12-.51-.21-.73-.38-.82-.6-1.73-2.35-2.24-3.23-4.11-7.19-4.36-15.12-4.25-23.17Z"/><path class="cls-1" d="M85.44,166.74c1.3.77,2.47,1.55,3.53,2.64,4.94,5.08,3.3,16.83,3.34,23.55l-.67-.15c-6.45-6.99-6.25-17.16-6.2-26.04Z"/><path class="cls-1" d="M338.96,409.77l.45.57c.86,8.99-.88,16.61-6.01,24.12-1.64-2.35-.79-15.78-.77-19.47,2.19-1.65,4.26-3.44,6.34-5.22Z"/><path class="cls-1" d="M314.7,271.08c1.52.77,3.39,2.26,4.57,3.49,3.95,4.12,4.25,10.87,4.29,16.26-.88-.27-1.7-.62-2.55-.97-3.91-4.07-6.31-13.27-6.31-18.79Z"/><circle class="cls-4" cx="192.96" cy="115.93" r="61.27"/></svg>